# xmcd
#
# Track frame offsets:
#	150
#	21906
#	42244
#	73357
#	96476
#	126588
#	154674
#	177119
#	204629
#	233585
#
# Disc length: 3623 seconds
#
# Revision: 0
# Processed by: cddbd v1.5.2PL0 Copyright (c) Steve Scherf et al.
# Submitted via: dBpowerAMP V4.0
#
DISCID=8e0e250a
DTITLE=Robert Cray Band - Hammersmith Odeon,London 1991
DYEAR=1991
DGENRE=NewBlues
TTITLE0=01 - Phone Booth
TTITLE1=02 - I Guess I Showed Her
TTITLE2=03 - These Things
TTITLE3=04 - The Forecast (Calls For Pain)
TTITLE4=05 - Where Do I Go From Here?
TTITLE5=06 - Move A Mountain
TTITLE6=07 - Consequences
TTITLE7=08 - The Things You Do To Me
TTITLE8=09 - Holding Court
TTITLE9=10 - Walk Around Time
EXTD=
EXTT0=
EXTT1=
EXTT2=
EXTT3=
EXTT4=
EXTT5=
EXTT6=
EXTT7=
EXTT8=
EXTT9=
PLAYORDER=
